<svg height="800" width="1200" xmlns="http://www.w3.org/2000/svg"><g fill="none" transform="translate(12 12)"><path d="m787.33333 261.11582c219.62667 0 159.04-37.31831 378.66667-37.31831" opacity=".55" stroke="#45b78b" stroke-width="302.30414"/><path d="m398.66667 203.55091c219.62666 0 159.04 34.8204 378.66666 34.8204" opacity=".55" stroke="#2b8c67" stroke-width="256.81512"/><path d="m10 308.92235c219.62667 0 159.04-45.21121 378.66667-45.21121" opacity=".55" stroke="#93d7b7" stroke-width="136.49467"/><path d="m398.66667 490.36499c219.62666 0 159.04-61.6796 378.66666-61.6796" opacity=".55" stroke="#2b8c67" stroke-width="123.81303"/><path d="m10 84.01479c219.62667 0 159.04 51.28878 378.66667 51.28878" opacity=".55" stroke="#93d7b7" stroke-width="120.32045"/><g stroke="#45b78b"><path d="m787.33333 437.36556c219.62667 0 159.04 59.18168 378.66667 59.18168" opacity=".55" stroke-width="50.19532"/><path d="m787.33333 487.4833c219.62667 0 159.04 252.18169 378.66667 252.18169" opacity=".55" stroke-width="24.9609"/><path d="m787.33333 468.73303c219.62667 0 159.04 155.68169 378.66667 155.68169" opacity=".55" stroke-width="12.53963"/></g><path d="m398.66667 653.45743c219.62666 0 159.04-158.1796 378.66666-158.1796" opacity=".55" stroke="#2b8c67" stroke-width="9.37185"/></g><path d="m12 35.85456h10v120.32045h-10z" fill="#93d7b7"/><path d="m400.66667 87.14335h10v256.81512h-10z" fill="#2b8c67"/><path d="m12 252.67501h10v136.49467h-10z" fill="#93d7b7"/><path d="m789.33333 121.96375h10v390h-10z" fill="#0c3c26"/><path d="m400.66667 440.45847h10v123.81303h-10z" fill="#2b8c67"/><path d="m400.66667 660.7715h10v9.37185h-10z" fill="#2b8c67"/><g fill="#45b78b"><path d="m1178 84.64544h10v302.30414h-10z"/><path d="m1178 483.44958h10v50.19532h-10z"/><path d="m1178 630.14491h10v12.53963h-10z"/><path d="m1178 739.18453h10v24.9609h-10z"/></g><g fill="#0c3c26" font-family="monospace" font-size="22" transform="translate(12 12)"><rect fill="#fff" fill-opacity=".7" height="65.18151" rx="5.5" width="254.0475" x="12.08687" y="50.60404"/><text dy="-4.43575" font-size="27.06" font-weight="700" x="16.72437" y="84.01479">PLATINUM &amp; GOLD<tspan dy="28.2315" font-size="16.94" font-weight="400" x="16.72437">$91,500</tspan></text><rect fill="#fff" fill-opacity=".7" height="65.18149" rx="5.5" width="270.34438" x="400.75355" y="170.14016"/><text dy="-4.43575" font-size="27.06" font-weight="700" x="405.39104" y="203.55091">CORPORATE DONORS<tspan dy="28.2315" font-size="16.94" font-weight="400" x="405.39104">$195,300</tspan></text><rect fill="#fff" fill-opacity=".7" height="65.18151" rx="5.5" width="237.76625" x="12.08687" y="275.5116"/><text dy="-4.43575" font-size="27.06" font-weight="700" x="16.72437" y="308.92235">SILVER &amp; BELOW<tspan dy="28.2315" font-size="16.94" font-weight="400" x="16.72437">$103,800</tspan></text><rect fill="#fff" fill-opacity=".7" height="65.18151" rx="5.5" width="107.4225" x="667.82395" y="271.55298"/><text dy="-4.43575" font-size="27.06" font-weight="700" text-anchor="end" x="770.60896" y="304.96375">BUDGET<tspan dy="28.2315" font-size="16.94" font-weight="400" x="770.60896">$296,583</tspan></text><rect fill="#fff" fill-opacity=".7" height="65.18154" rx="5.5" width="286.64125" x="400.75355" y="456.95423"/><text dy="-4.43575" font-size="27.06" font-weight="700" x="405.39104" y="490.36499">INDIVIDUAL DONORS<tspan dy="28.2315" font-size="16.94" font-weight="400" x="405.39104">$94,156</tspan></text><rect fill="#fff" fill-opacity=".7" height="65.18151" rx="5.5" width="91.14125" x="400.75355" y="620.04673"/><text dy="-4.43575" font-size="27.06" font-weight="700" x="405.39104" y="653.45743">OTHER<tspan dy="28.2315" font-size="16.94" font-weight="400" x="405.39104">$7,127</tspan></text><rect fill="#fff" fill-opacity=".7" height="65.18149" rx="5.5" width="91.26625" x="1072.64688" y="190.38677"/><text dy="-4.43575" font-size="27.06" font-weight="700" text-anchor="end" x="1159.27562" y="223.79751">WAGES<tspan dy="28.2315" font-size="16.94" font-weight="400" x="1159.27562">$229,893</tspan></text><rect fill="#fff" fill-opacity=".7" height="65.18154" rx="5.5" width="107.4225" x="1056.49063" y="463.13648"/><text dy="-4.43575" font-size="27.06" font-weight="700" text-anchor="end" x="1159.27562" y="496.54724">GRANTS<tspan dy="28.2315" font-size="16.94" font-weight="400" x="1159.27562">$38,172</tspan></text><rect fill="#fff" fill-opacity=".7" height="65.18151" rx="5.5" width="205.1725" x="958.74063" y="591.004"/><text dy="-4.43575" font-size="27.06" font-weight="700" text-anchor="end" x="1159.27562" y="624.41472">FEES/HOSTING<tspan dy="28.2315" font-size="16.94" font-weight="400" x="1159.27562">$9,536</tspan></text><rect fill="#fff" fill-opacity=".7" height="65.18151" rx="5.5" width="123.71937" x="1040.19376" y="706.25425"/><text dy="-4.43575" font-size="27.06" font-weight="700" text-anchor="end" x="1159.27562" y="739.66499">SURPLUS<tspan dy="28.2315" font-size="16.94" font-weight="400" x="1159.27562">$18,982</tspan></text></g></svg>