<svg height="489" viewBox="0 0 566 489" width="566" xmlns="http://www.w3.org/2000/svg"><g fill="none" fill-rule="evenodd" transform="translate(-1 -1)"><g fill="#89e7c3"><path d="m216.858 85.895c-153.995-.31-207.525 22.034-215.1 86.779-6.042 51.641 23.856 79.556 96.164 88.028 10.491 1.225 20.772 2.173 31.19 2.872-5.14-48.646 14.703-99.356 59.531-149.628 9.243-10.367 18.66-19.714 28.215-28.051zm0 0"/><path d="m515.249 150.597-26.897 30.167c18.099-.104 37.624-.875 60.093-2.31l18.04-177.441c-115.746-.413-181.365 8.714-214.958 34.224 38.159 3.215 76.207 20.911 112.406 53.189 21.732 19.379 36.836 36.963 51.316 62.171 0 0-14.48-25.208 0 0zm0 0"/><path d="m198.649 383.627c-8.023-7.154-15.347-14.427-21.997-21.805-9.162 12.33-13.719 27.101-14.708 44.782-2.916 52.145 28.759 78.313 101.772 82.405 39.991 2.227 76.679.803 129.321-4.977l9.997-179.061c-9.186.385-18.039.819-26.598 1.302l-113.1 126.836c-28.217-19.021-45.253-32.154-64.687-49.482 0 0 19.434 17.328 0 0zm0 0"/></g><path d="m419.737 177.541c-72.351-7.371-102.637-34.804-97.379-86.475 2.436-23.965 11.252-42.225 29.169-55.829-45.727-3.854-91.614 13.092-134.669 50.658 9.798.02 19.99.129 30.615.327l-20.74 177.335c-38.712 1.889-68.709 1.95-97.622.018 3.598 34.051 19.441 67.085 47.541 98.248 25.014-33.656 84.438-49.073 199.786-55.548l111.914-125.51c-24.246.139-45.926-.92-68.615-3.224 0 0 22.689 2.304 0 0zm0 0" fill="#3eb88a"/><path d="m226.733 263.557 20.74-177.335c-10.625-.197-20.817-.307-30.615-.327-9.555 8.337-18.972 17.684-28.215 28.051-44.828 50.272-64.671 100.982-59.532 149.628 28.912 1.933 58.91 1.871 97.622-.017 0 0-38.712 1.888 0 0zm0 0" fill="#b0cb2b"/><path d="m247.473 86.222c-10.625-.197-20.817-.307-30.615-.327-9.555 8.337-18.972 17.684-28.215 28.051-44.828 50.272-64.671 100.982-59.532 149.628 28.912 1.933 58.91 1.871 97.622-.017zm0 0" fill="#0baa6e"/><path d="m322.358 91.065c-5.258 51.671 25.028 79.104 97.379 86.475 22.688 2.304 44.369 3.364 68.614 3.224l26.897-30.167c-14.48-25.208-29.584-42.792-51.315-62.171-36.199-32.279-74.247-49.975-112.406-53.189-17.917 13.603-26.733 31.863-29.169 55.828 0 0 2.436-23.965 0 0zm0 0" fill="#b0cb2b"/><path d="m322.358 91.065c-5.258 51.671 25.028 79.104 97.379 86.475 22.688 2.304 44.369 3.364 68.614 3.224l26.897-30.167c-14.48-25.208-29.584-42.792-51.315-62.171-36.199-32.279-74.247-49.975-112.406-53.189-17.917 13.603-26.733 31.863-29.169 55.828 0 0 2.436-23.965 0 0zm0 0" fill="#0baa6e"/><path d="m176.652 361.822c6.65 7.378 13.974 14.65 21.997 21.805 19.435 17.328 36.47 30.461 64.688 49.483l113.1-126.836c-115.347 6.475-174.771 21.892-199.785 55.548 0 0 25.014-33.656 0 0zm0 0" fill="#b0cb2b"/><path d="m176.652 361.822c6.65 7.378 13.974 14.65 21.997 21.805 19.435 17.328 36.47 30.461 64.688 49.483l113.1-126.836c-115.347 6.475-174.771 21.892-199.785 55.548 0 0 25.014-33.656 0 0zm0 0" fill="#0baa6e"/></g></svg>