<svg fill="none" viewBox="0 0 376 313" xmlns="http://www.w3.org/2000/svg"><path d="m105.854 59.02c-.2.35-.391.701-.574 1.056 1.562-10.054 4.83-19.53 10.299-27.676 7.64-11.359 19.515-20.352 37.88-25.044 22.068-1.823 40.031 4.404 55.365 16.328 7.623 7.484 14.323 16.552 19.947 28.222a6.068 6.068 0 0 0 -3.748.77c-13.244-29.643-35.953-41.854-63.248-42.195-30.581 2.265-47.163 25.148-52.199 45.752-.518 2.115-1.026 4.404-1.405 6.803-.821-1.45-1.596-2.819-2.317-4.016zm161.601 17.834c.288 2.658.78 5.22 1.14 7.72-.267-.68-.591-1.36-.981-2.036-3.01-5.224-9.171-7.602-16.202-4.794-1.694.677-3.88 2.797-5.132 1.136-.886-1.172-2.517-2.787-.854-3.896 8.282-5.526 17.262-4.592 22.757.744-.063-.916.255-1.014.555-.33.601.616.76.79 1.172 1.28 3.53 4.144 4.798 11.102 4.453 16.238-.279-6.727-6.307-10.587-6.908-16.062zm-26.708 33.714c-3.92-1.671-7.435-5.064-10.18-9.296-5.299-12.15-4.641-33.116 2.161-41.446a3.514 3.514 0 0 0 5.05-.629c4.641-6.008 13.906-10.972 24.054-13.89 10.152-2.962 21.16-3.945 28.808-2.853.104.015.21.024.316.032v.003c17.256.747 35.496 14.803 40.367 36.443-1.089 2.937-1.987 6.001-2.903 9.101-.834-13.463-6.105-27.683-16.732-34-16.138-12.844-52.96-11.403-71.457 7.997-8.235 8.63-13.397 24.847-2.977 38.182 5.542 7.081 17.894 6.794 26.59.221 2.094-1.581 3.799-3.768 4.778-6.28-.564 2.557-1.747 5.113-3.939 7.724-4.053 4.833-13.159 8.963-20.751 8.963-1.101 0-2.169-.09-3.185-.272zm-223.104 82.893c-17.693-25.813-10.821-52.097 2.794-68.78.073-.081.143-.163.208-.252 10.615-12.813 29.016-22.8 48.234-32.388 11.705-4.224 23.295-5.212 33.569-5.385a3.51 3.51 0 0 0 3.454-3.516l-.002-.09a18.546 18.546 0 0 0 3.93 4.272c7.902 6.24 16.85 7.474 23.312 16.296 17.82 24.295.057 43.85-18.594 59.066a78.637 78.637 0 0 1 -5.796.989c-.634.081-1.262.147-1.884.199l-15.314-11.667c-.494 4.544 1.005 7.891 3.68 10.293a15.2 15.2 0 0 1 -5.343-3.768c-8.172-8.852-5.321-22.458 1.377-28.761 7.27-6.825 19.432-7.236 25.435-2.149.696.585 1.773 1.486 1.203 2.421-1.836 3.039-5.606 2.753-7.823 1.628-4.847-2.453-11.752 1-15.093 5.021-3.66 4.372-3.515 14.018 2.026 18.26 4.182 3.2 10.96 1.856 17.168.398 19.131-4.515 25.308-20.016 23.74-36.395-5.004-19.907-20.857-26.824-36.33-28.744-18.703-2.313-42.744 7.603-58.28 18.831-16.47 11.91-29.14 25.577-32.15 43.773-3.549 21.473 9.917 43.293 24.408 56.108-1.7-.779-3.441-1.596-5.244-2.453 3.766 3.434 7.73 7.764 12.032 11.786-9.257-6.345-17.569-14.606-24.717-24.993zm274.803 25.704c-.016-.14-.032-1.457.078-2.868.475-.201 1.474-.46 2.06-.187 9.375 4.21 19.067 7.806 30.755 7.282 18.909 2.344 35.712-12.495 38.215-26.732 4.909-27.874-16.598-58.408-39.198-64.378-1.456-1.074-5.336-2.341-7.997-.221-1.281 1.045-3.848-.364-3.199-2.075-2.661-.458-5.385-.3-8.045-.174-16.328.793-25.672 12.752-25.703 24.944-.032 9.089 5.986 16.501 12.875 17.37 7.317 3.011 18.197-1.882 19.717-9.009 1.156-5.401-3.326-11.133-7.364-11.969-1.093-.224-.981-3.379-.19-3.503 3.628-.601 7.11 1.203 9.281 3.877 3.977 4.864 5.211 12.115 2.681 16.636 0-2.152-.184-4.53-.496-7.148l-4.404-4.402c3.596 11.104-2.454 19.417-14.077 19.558-11.023.158-16.756-8.584-23.597-15.773-.022.157-.042.317-.062.473-2.62-10.33.83-21.762 7.108-27.694 5.167-7.002 15.324-10.104 24.482-10.603-2.036 1.503-3.759 3.224-4.415 5.88l21.055-5.257a3.512 3.512 0 0 0 -.468 1.76 3.508 3.508 0 0 0 2.468 3.357c9.926 3.429 18.713 8.956 26.526 16.377a.81.81 0 0 1 .074.071l-.007.005c.251.268.545.476.852.642 6.312 8.517 13.439 18.394 15.508 30.652 2.155 12.48 1.449 24.032-3.843 32.008a3.73 3.73 0 0 0 -.478.869l-.003-.001c-2.169 6.069-9.424 11.752-18.356 15.158-8.852 3.466-19.193 4.703-26.525 3.232-6.748-1.3-12.955-2.201-17.12-4.974l-.002.002a3.503 3.503 0 0 0 -1.93-.573 3.519 3.519 0 0 0 -3.518 3.516v.016a100.7 100.7 0 0 1 -.569 11.259 86.028 86.028 0 0 0 -2.871 4.069c1.228-6.469 1.498-13.505.702-21.472zm-150.151 27.904c-11.339-18.545-2.248-34.969 8.647-46.004 13.477-13.671 36.568-12.529 47.417-2.772 4.575 4.105 7.859 11.039 9.651 18.251-.823-1.16-1.796-2.1-2.952-2.748l-1.774.869c-1.097 1.953-1.685 4.128-1.992 6.417-.618-3.724-1.76-7.618-3.552-11.705-7.808-7.919-17.009-12.573-28.046-11.451-18.863 7.555-26.434 21.047-24.438 38.943 4.182 9.408 12.338 15.109 22.347 12.829 7.063-1.6 9.724-8.03 8.98-14.238 1.156-5.4-3.58-9.883-8.189-10.72-2.202.79-4.735 1.853-7.284 2.138-.364-1.142-1.41-2.757-.839-3.31 2.485-2.406 5.921-4.863 9.992-5.338 6.145-.713 9.456 5.162 12.259 10.435 3.15 11.531.601 21.064-8.98 26.152-3.894 2.057-7.635 2.945-11.16 2.945-8.15 0-15.134-4.745-20.087-10.693zm-76.033 13.572c.489-8.668 2.389-16.548 5.73-24.645a3.52 3.52 0 0 0 .319-1.471 3.502 3.502 0 0 0 -2.567-3.384l.002-.005c-.406-.114-.811-.231-1.214-.351l7.184.604c-7.168 10.896-10.87 31.016-6.75 46.655-2.051-5.371-3.1-11.272-2.704-17.403zm31.928 43.256a3.54 3.54 0 0 0 -.62-.144v-.004c-4.884-.609-9.951-2.937-14.554-6.535a24.01 24.01 0 0 0 4.07 1.592c-1.636-2.516-2.98-5.012-4.051-7.48 6.093 5.703 13.841 8.991 21.647 9.319 36.901 7.189 80.612-20.081 90.35-48.331 2.61-4.914 4.846-10.221 5.999-16.009-.079 1.647-.252 3.243-.599 4.761-1.536 6.732-4.592 13.558-7.016 20.034a24.682 24.682 0 0 0 -1.544 7.625 3.505 3.505 0 0 0 -3.412 1.707c-6.938 11.858-22.553 22.564-40.021 28.914-11.405 4.207-23.595 6.564-34.488 6.564-5.708 0-11.06-.645-15.761-2.013z" fill="#8a349d"/><path d="m148.438 299.346c17.468-6.351 33.082-17.056 40.021-28.915a3.505 3.505 0 0 1 3.412-1.706c-.512 12.226 8.031 24.16 20.027 30.637 11.624 6.269 31.245 6.78 43.282 2.407 15.472-5.622 23.359-21.334 30.596-35.19 4.863-9.328 11.672-21.617 10.628-32.276a63.773 63.773 0 0 0 -1.79 2.264c.396-3.658.585-7.412.569-11.258v-.016a3.519 3.519 0 0 1 3.517-3.516c.712 0 1.376.209 1.931.573l.001-.003c4.166 2.774 10.372 3.675 17.12 4.975 7.332 1.471 17.674.233 26.526-3.232 8.932-3.407 16.186-9.089 18.356-15.158l.002.001c.122-.311.282-.603.479-.87 5.292-7.975 5.997-19.528 3.843-32.008-2.07-12.257-9.196-22.134-15.508-30.652a3.272 3.272 0 0 1 -.852-.641l.006-.005a.689.689 0 0 0 -.073-.071c-7.813-7.421-16.6-12.948-26.527-16.377a3.509 3.509 0 0 1 -2.468-3.358c0-.642.171-1.241.468-1.76l7.103-1.773c6.351-14.237 4.355-28.617 2.676-43.695-.159.4-.311.803-.461 1.209-4.871-21.64-23.111-35.697-40.367-36.443v-.003a4.827 4.827 0 0 1 -.316-.032c-7.648-1.092-18.656-.11-28.808 2.852-10.148 2.919-19.413 7.883-24.055 13.89a3.513 3.513 0 0 1 -5.049.63c.925-1.132 1.961-2.03 3.116-2.642l-7.031-5.274-.042-.004c-5.624-11.67-12.324-20.738-19.947-28.223-15.335-11.924-33.297-18.15-55.365-16.328-18.366 4.692-30.24 13.686-37.88 25.045-5.47 8.145-8.738 17.622-10.299 27.675-4.044 7.827-3.604 16.65.62 22.975l.001.09a3.509 3.509 0 0 1 -3.453 3.516c-10.275.173-21.864 1.16-33.57 5.385-19.217 9.588-37.618 19.574-48.233 32.388a3.4 3.4 0 0 1 -.208.252c-13.615 16.682-20.487 42.967-2.795 68.78 7.149 10.386 15.46 18.648 24.718 24.993 6.627 6.193 14.054 11.665 22.793 12.049l3.379.282c.403.12.808.237 1.213.35l-.001.006a3.502 3.502 0 0 1 2.567 3.384c0 .526-.114 1.021-.319 1.47-3.341 8.098-5.241 15.978-5.73 24.646-.397 6.13.653 12.032 2.705 17.402 2.209 8.386 6.668 15.484 14.049 19.171 4.603 3.597 9.67 5.925 14.555 6.535v.004c.213.029.418.078.618.144 13.676 3.972 32.868 1.86 50.25-4.551zm-52.088 11.345c-19.643-3.109-38.268-24.481-37.135-50.15l-.003-.107c0-.163.014-.319.035-.477.487-8.096 2.133-15.671 4.881-23.152-20.453-6.528-38.46-19.329-52.113-39.105a3.545 3.545 0 0 1 -.34-.498c-19.565-28.593-11.832-58.745 3.374-77.04.062-.08.124-.157.191-.229 12.06-14.432 31.271-24.536 50.64-34.274h.002c.117-.06.24-.11.364-.156v-.005c11.038-4.01 21.833-5.333 31.43-5.739-.529-2.728-.568-5.335-.518-7.513.396-15.505 3.945-30.884 12.576-43.772 8.598-12.879 22.361-23.045 42.3-28.02l.002.013a3.3 3.3 0 0 1 .695-.103c23.771-2.072 43.851 4.83 60.361 17.72.239.165.456.354.648.572 8.628 8.457 16.158 18.864 22.3 32.15 6.242-5.658 14.834-9.617 23.828-12.262 10.979-3.163 22.539-4.292 31.555-3.083 23.98 1.247 47.913 23.017 48.184 54.55.096 12.41-3.196 23.547-9.171 33.208 9.035 3.707 17.158 9.079 24.386 15.839.437.133 1.009.404 1.618 1.032.348.391.572.796.711 1.182 6.28 8.554 14.291 19.343 16.741 33.597 2.26 13.288 1.894 26.572-4.844 36.966-3.612 8.858-12.417 14.979-22.22 18.826-10.024 3.85-21.269 5.337-30.438 3.564-4.598-.948-9.55-1.588-14.264-3.351-1.166 25.957-11.886 48.743-32.968 65.088a3.623 3.623 0 0 1 -.311.24c-23.351 17.929-53.653 13.503-68.357-4.571a3.316 3.316 0 0 1 -.278-.342c-3.029-3.79-6.157-7.824-9.008-12.434-9.045 11.746-24.016 21.091-40.342 27.111-12.08 4.4-24.906 6.981-36.791 6.981-6.249 0-12.24-.717-17.721-2.256z" fill="#8a349d"/><path d="m236.701 109.114c-2.547-1.515-4.592-4.304-6.134-7.841 2.746 4.232 6.26 7.625 10.18 9.296-1.48-.267-2.85-.743-4.046-1.455zm-129.832 54.759a43.715 43.715 0 0 0 1.884-.199 78.817 78.817 0 0 0 5.796-.989 268.204 268.204 0 0 1 -4.514 3.601zm-2.187 136.773c-7.806-.328-15.553-3.616-21.647-9.319-12.596-29.022 12.022-54.709 29.551-76.469-16.392 1.187-30.788 7.556-47.432 4.168-11.527-2.331-19.918-5.487-29.581-9.904-14.492-12.815-27.958-34.635-24.408-56.108 3.01-18.196 15.679-31.863 32.15-43.773 15.535-11.228 39.575-21.144 58.278-18.831 15.473 1.92 31.327 8.837 36.331 28.744 1.568 16.379-4.61 31.88-23.74 36.395-6.208 1.458-12.987 2.802-17.169-.398-5.54-4.242-5.685-13.888-2.026-18.26 3.341-4.021 10.247-7.474 15.093-5.021 2.218 1.125 5.987 1.411 7.823-1.628.571-.935-.507-1.836-1.203-2.421-6.002-5.087-18.165-4.676-25.434 2.149-6.7 6.303-9.55 19.909-1.378 28.761a15.2 15.2 0 0 0 5.344 3.768c7.81 7.011 25.647 5.95 33.266 2.934 16.788-6.67 25.498-19.796 26.401-37.204.887-17.038-5.021-31.167-18.483-41.839-5.574-4.421-14.046-5.039-19.177-10.025-3.341-3.246-6.445-8.699-9.071-13.328.379-2.399.887-4.688 1.406-6.803 5.036-20.604 21.617-43.487 52.198-45.752 27.295.341 50.004 12.552 63.248 42.195-7.61 4.297-9.658 24.412-10.005 30.005-.885 14.064 2.567 27.776 15.885 34.905 11.592 6.194 25.926 2.074 35.016-6.826 4.546-4.45 8.108-10.262 8.44-16.756.019-.371.019-.735.004-1.088.346-5.136-.922-12.094-4.453-16.238a18.45 18.45 0 0 0 -1.172-1.28c-.3-.684-.617-.586-.555.33-5.494-5.336-14.474-6.27-22.757-.744-1.663 1.11-.032 2.724.855 3.896 1.252 1.661 3.437-.459 5.132-1.136 7.03-2.808 13.192-.43 16.201 4.794.391.676.715 1.356.981 2.036.472 3.255.723 6.416.027 9.58-.979 2.511-2.684 4.698-4.777 6.279-8.696 6.573-21.048 6.86-26.591-.221-10.42-13.335-5.257-29.552 2.977-38.182 18.498-19.4 55.319-20.84 71.458-7.997 10.626 6.317 15.897 20.537 16.732 34-1.482 5.008-3.012 10.107-5.472 14.903-3.074 5.988-6.352 10.612-11.419 15.188-1.88 1.716-4.171 2.972-6.164 4.445-9.157.499-19.315 3.601-24.481 10.603-6.279 5.932-9.728 17.364-7.108 27.694-1.803 15.499 10.197 25.17 24.529 23.899 13.964-1.241 18.109-6.355 18.107-16.607 2.529-4.521 1.296-11.772-2.682-16.636-2.17-2.674-5.653-4.478-9.281-3.877-.791.124-.903 3.279.191 3.503 4.037.836 8.52 6.568 7.364 11.969-1.52 7.127-12.4 12.02-19.718 9.009-6.889-.869-12.906-8.281-12.874-17.37.03-12.192 9.374-24.151 25.702-24.944 2.66-.126 5.384-.284 8.046.174-.65 1.711 1.917 3.12 3.198 2.075 2.662-2.12 6.542-.853 7.998.221 22.6 5.97 44.106 36.504 39.197 64.378-2.503 14.237-19.305 29.076-38.215 26.732-11.688.524-21.38-3.072-30.754-7.282-.587-.273-1.586-.014-2.06.187-.111 1.411-.095 2.728-.079 2.868.796 7.967.527 15.003-.701 21.472-8.701 13.073-15.234 28.921-31.051 34.56-12.323 4.401-24.025 3.672-33.623-5.289-7.934-7.396-11.308-16.787-13.24-27.036-1.276-6.715-1.22-19.879-5.821-26.328-1.792-7.212-5.076-14.146-9.651-18.251-10.849-9.757-33.94-10.899-47.417 2.772-10.895 11.035-19.985 27.459-8.647 46.004 7.095 8.52 18.356 14.573 31.247 7.748 9.581-5.088 12.131-14.621 8.98-26.152-2.803-5.273-6.113-11.148-12.259-10.435-4.07.475-7.506 2.932-9.992 5.338-.57.553.475 2.168.839 3.31 2.549-.285 5.083-1.348 7.284-2.138 4.609.837 9.345 5.32 8.189 10.72.744 6.208-1.917 12.638-8.98 14.238-10.009 2.28-18.165-3.421-22.346-12.829-1.996-17.896 5.574-31.388 24.437-38.943 11.037-1.122 20.239 3.532 28.047 11.451 1.792 4.087 2.933 7.981 3.552 11.705-.65 4.86-.024 10.256-.262 15.223-1.153 5.788-3.389 11.095-5.998 16.009-8.666 25.136-44.227 49.498-77.955 49.498-4.177 0-8.328-.374-12.396-1.167z" fill="#fff"/><path d="m226.738 72.135c2.044-3.818 4.529-8.835.571-13.923a108.05 108.05 0 0 0 -2.286-5.536 6.068 6.068 0 0 1 3.748-.77 128.468 128.468 0 0 1 2.924 6.546v-.003c.228.54.584 1.014 1.034 1.378-6.803 8.329-7.46 29.294-2.162 41.445-5.701-8.785-8.077-21.17-3.829-29.138zm14.523 38.641a17.263 17.263 0 0 1 -.514-.208c8.027 1.456 19.295-3.155 23.936-8.691 2.192-2.61 3.375-5.166 3.939-7.724 1.127-2.893 1.288-6.224-.027-9.579-.36-2.5-.852-5.062-1.14-7.72.602 5.475 6.63 9.335 6.908 16.062a18.15 18.15 0 0 1 -.382 2.784c-2.032 9.186-14.802 16.29-25.638 16.29-2.517 0-4.933-.385-7.082-1.214z" fill="#8a349d"/><path d="m231.694 58.45v.002c-.94-2.271-1.916-4.45-2.924-6.546l.042.004 7.031 5.274c-1.155.613-2.191 1.51-3.116 2.642a3.552 3.552 0 0 1 -1.033-1.377z" fill="#8a349d"/><path d="m268.594 84.575c1.315 3.355 1.154 6.685.027 9.579.696-3.163.445-6.324-.027-9.579zm-37.692 33.012c-13.318-7.129-16.77-20.841-15.885-34.905.347-5.594 2.395-25.708 10.005-30.006a108.012 108.012 0 0 1 2.286 5.536c3.958 5.088 1.473 10.106-.571 13.923-4.248 7.968-1.872 20.352 3.829 29.137 1.542 3.538 3.587 6.327 6.134 7.842 1.196.712 2.566 1.188 4.046 1.454.171.072.342.143.514.208 11.402 4.403 30.217-3.754 32.72-15.076a18.15 18.15 0 0 0 .382-2.784c.015.354.015.718-.004 1.088-.332 6.495-3.894 12.307-8.44 16.756-6.096 5.968-14.549 9.787-22.953 9.787-4.128 0-8.244-.923-12.063-2.96z" fill="#ddc7e0"/><path d="m280.724 172.999c-3.595-3.5-5.827-7.715-6.951-12.132.02-.156.04-.316.062-.474 6.841 7.19 12.574 15.931 23.597 15.774 11.623-.142 17.673-8.455 14.077-19.559l4.404 4.403c.312 2.617.496 4.996.496 7.148a8 8 0 0 1 -1.541 1.973c-4.111 5.813-11.305 8.3-18.279 8.3-6.272 0-12.364-2.012-15.865-5.433z" fill="#8a349d"/><path d="m273.774 160.867c1.124 4.417 3.356 8.632 6.95 12.132 7.396 7.221 26.336 8.172 34.144-2.867a8.027 8.027 0 0 0 1.542-1.973c.002 10.252-4.143 15.365-18.107 16.606-.845.076-1.679.112-2.504.112-13.191 0-23.723-9.425-22.025-24.01z" fill="#ddc7e0"/><path d="m205.918 287.165a2.979 2.979 0 0 0 -.164-.207c-4.007-5.022-7.93-10.162-11.098-16.256a3.518 3.518 0 0 0 -2.785-1.977 24.653 24.653 0 0 1 1.544-7.625c2.424-6.476 5.48-13.302 7.016-20.034.347-1.518.52-3.114.599-4.761.942-4.736 1.16-9.796.261-15.223.307-2.289.895-4.464 1.992-6.417l1.773-.869c1.156.648 2.13 1.588 2.952 2.748 1.607 6.457 2.014 13.142 1.07 18.205-2.042 11.005-5.638 21.537-12.716 30.216 1.108 1.361 1.852 2.865 2.881 4.893 10.421 20.414 27.065 32.116 51.693 25.022 23.391-10.514 33.29-28.54 39.18-47.652.656-2.138 1.2-4.33 1.627-6.591a86.028 86.028 0 0 1 2.871-4.069c-2.347 21.634-11.987 39.948-29.786 53.852a2.901 2.901 0 0 0 -.225.176c-8.965 6.928-19.051 9.986-28.555 9.986-12.198 0-23.442-5.041-30.13-13.417z" fill="#8a349d"/><path d="m211.896 299.364c-11.996-6.478-20.539-18.411-20.027-30.638a3.523 3.523 0 0 1 2.786 1.978c3.168 6.093 7.09 11.233 11.097 16.256.057.066.113.134.164.206 11.899 14.899 38.212 19.255 58.685 3.431.072-.064.149-.12.226-.176 17.799-13.904 27.438-32.217 29.785-53.852a62.903 62.903 0 0 1 1.791-2.264c1.044 10.659-5.766 22.948-10.628 32.276-7.238 13.856-15.124 29.568-30.596 35.189-5.192 1.884-11.789 2.863-18.551 2.863-8.917 0-18.121-1.703-24.732-5.269z" fill="#8a349d"/><path d="m201.293 221.082c.898 5.427.681 10.487-.262 15.223.238-4.967-.388-10.363.262-15.223zm-2.048 48.776c-1.03-2.028-1.774-3.532-2.882-4.893 7.079-8.679 10.675-19.211 12.716-30.216.944-5.063.538-11.748-1.069-18.205 4.601 6.449 4.545 19.613 5.821 26.328 1.932 10.249 5.306 19.64 13.24 27.036 9.598 8.961 21.3 9.69 33.623 5.289 15.817-5.639 22.351-21.487 31.051-34.56a61.055 61.055 0 0 1 -1.627 6.591c-5.891 19.112-15.789 37.138-39.18 47.652-4.909 1.416-9.505 2.085-13.793 2.085-17.226 0-29.556-10.763-37.9-27.107z" fill="#ddc7e0"/><path d="m133.142 103.618c-6.461-8.822-15.409-10.057-23.312-16.295a18.564 18.564 0 0 1 -3.929-4.272 3.568 3.568 0 0 0 -.309-1.362l.01-.005c-1.252-2.69-1.489-6.224-1.409-9.266a96.783 96.783 0 0 1 1.088-12.342c.183-.355.373-.707.573-1.056.722 1.197 1.496 2.566 2.318 4.016-1.091 6.905-1.099 14.713 2.862 21.861 13.208 3.027 23.914 10.075 31.404 22.92 8.552 23.784-.348 42.331-19.4 52.971-3.002.688-5.798 1.349-8.489 1.896 18.651-15.216 36.413-34.771 18.593-59.066zm-37.906 58.881c-2.677-2.403-4.175-5.75-3.682-10.294l15.315 11.667c-1.08.094-2.139.144-3.175.144-3.06 0-5.912-.439-8.459-1.517z" fill="#8a349d"/><path d="m105.28 60.076a96.783 96.783 0 0 0 -1.088 12.343c-.08 3.041.157 6.575 1.409 9.265l-.011.006c.187.416.296.877.31 1.361-4.224-6.325-4.664-15.148-.62-22.975z" fill="#8a349d"/><path d="m95.234 162.499c3.41 1.442 7.364 1.74 11.634 1.373l3.166 2.413a268.204 268.204 0 0 0 4.514-3.601c2.69-.547 5.486-1.208 8.489-1.896 19.052-10.64 27.952-29.187 19.4-52.971-7.491-12.845-18.196-19.893-31.404-22.92-3.961-7.148-3.953-14.956-2.863-21.861 2.626 4.63 5.73 10.083 9.071 13.328 5.131 4.987 13.603 5.604 19.177 10.025 13.462 10.672 19.37 24.802 18.483 41.839-.903 17.408-9.613 30.535-26.401 37.204-3.444 1.363-8.975 2.328-14.724 2.328-6.971 0-14.262-1.419-18.542-5.261z" fill="#ddc7e0"/><path d="m83.017 297.215c-5.91-4.616-11.05-11.325-14.05-19.171-4.12-15.638-.418-35.758 6.75-46.654l-7.184-.604c-9.347-2.747-18.118-6.814-26.173-12.331-4.302-4.023-8.266-8.352-12.032-11.787 1.803.858 3.544 1.675 5.245 2.454 3.613 3.196 7.29 5.832 10.782 7.761 12.56 9.171 27.176 15.189 45.802 11.676 1.028-.192 1.677 3.275.744 3.639-5.195 2.093-11.023 3.01-15.315 2.804-3.942 9.138-6.952 18.576-6.541 29.029.468 11.591 5.203 20.943 11.99 27.296 1.073 2.468 2.415 4.964 4.053 7.48a24.095 24.095 0 0 1 -4.071-1.592z" fill="#8a349d"/><path d="m65.153 230.504c-8.739-.384-16.167-5.856-22.794-12.049 8.055 5.517 16.826 9.584 26.173 12.331zm3.813 47.54c3 7.846 8.14 14.555 14.05 19.171-7.382-3.687-11.84-10.785-14.05-19.171z" fill="#8a349d"/><path d="m71.042 264.03c-.41-10.453 2.599-19.89 6.541-29.029 4.293.207 10.12-.711 15.315-2.804.934-.364.284-3.831-.744-3.639-18.625 3.514-33.242-2.505-45.801-11.676-3.493-1.929-7.17-4.565-10.783-7.761 9.664 4.417 18.054 7.573 29.581 9.904 16.645 3.388 31.04-2.981 47.433-4.168-17.53 21.76-42.147 47.447-29.551 76.469-6.788-6.353-11.523-15.705-11.99-27.296z" fill="#ddc7e0"/><path d="m305.364 122.569c4.376-.24 8.523.118 11.785.924 3.959-4.621 6.176-9.281 8.251-14.076 2.443-5.65 3.515-13.384 3.019-21.384.916-3.1 1.813-6.164 2.902-9.1a52.118 52.118 0 0 1 1.254 11.143c.08 12.624-3.627 23.408-10.39 32.815l.01.006c-.07.096-.132.194-.191.295l-21.055 5.257c.656-2.656 2.379-4.377 4.415-5.88z" fill="#8a349d"/><path d="m322.195 122.897-.01-.007c6.763-9.406 10.47-20.19 10.39-32.814a52.119 52.119 0 0 0 -1.254-11.144c.151-.406.303-.81.462-1.208 1.678 15.077 3.674 29.457-2.676 43.694l-7.103 1.774c.059-.102.121-.199.191-.295z" fill="#8a349d"/><path d="m305.363 122.57c1.994-1.473 4.284-2.729 6.164-4.445 5.067-4.576 8.346-9.2 11.419-15.188 2.46-4.796 3.991-9.895 5.472-14.903.496 8-.576 15.734-3.019 21.384-2.074 4.795-4.292 9.455-8.25 14.076-3.263-.806-7.41-1.164-11.786-.924z" fill="#ddc7e0"/></svg>