<svg xmlns="http://www.w3.org/2000/svg" width="129" height="99"><path d="M63.5 39c-.8 1.2-1.5 2.2-2.4 3l-1 .7c-.3.3-.6.5-1 .6a6 6 0 0 0 1.5-2.3c.3-.2.3-.6.3-1-.1-.4-.3-.8-.6-1-1-.7-2.4-.6-3.5-.3a6 6 0 0 0 1.4-2c.4-1.1-.2-2-1-2.4-1.4-.2-2.6.1-3.7.5.4-.5.8-1 1-1.7.5-.4.8-1.1.8-1.8.1-.8 0-1.6-.4-2.1-1-.4-1.9-.2-2.7.1a6.6 6.6 0 0 0 1.8-4c0-.3 0-.6-.3-.8-.2-.3-.5-.4-.8-.4-.8 0-1.7.4-2.4.7a3.7 3.7 0 0 0 .7-3.4c-.3-.6-.8-1.1-1.6-1 .5-.5.7-1.4.6-2.2 0-.8-.3-1.6-1-2h-.4l.7-1.4c.7-1.3 1.8-2.8 2-4.8 0-1.1-.6-2-1.5-2.2-.7 0-1.3.4-1.7.7l1.6-3.7c.5-1 .8-2.7.1-3.8-.6-1-2.1-1.3-3.2-.7a25 25 0 0 0-9 10.3c-1.5 3-3 6-3.7 10a2.5 2.5 0 0 0-2.8-.7c-.6.3-1 .9-1.5 1.5a.1.1 0 0 0 0 .2 1 1 0 0 0-.4.4c-1.4 0-2.6.3-4 .5-4.4.7-7.6 3-10 5.9l-1.2-1.5C13 25.5 12 24.1 9.7 24c-.4 0-.7.3-.9.5-.7.6-.7 1.8-.6 2.8l.3 1.7a8.8 8.8 0 0 0 2.8 4.6c-.6.5-1.2.9-2.2.8-.9-.8-1.3-2.1-2.4-3-1-.6-2.6-1.5-4-.8l-.3.3v.2l.1.2c.6.3 1.5.3 2 .7.8.5 1.2 1.7 1 3-.1 1-.3 2.2-.2 3.3.7 1.9 2 3 3.6 4a1 1 0 0 0-.3.4c-.7 2-1.3 4.2-2.3 6-1.2 2.2-3 3.8-4.3 5.9-1.4 1.7-2 4.5-1.7 7.6.4 3.3 1.4 6 2.6 8.6 1.7 2.7 4 4.7 7.3 5.9h.2v.1l.1.2.9.2c3.4 1.2 8.3 1.2 11-.3h.1a15.8 15.8 0 0 1 3.8-1.7c5.3-2 9.7-5.3 13.6-9a9 9 0 0 1 3.4-.2c2.2.3 3.8 1.2 5.7 1.9 0 0 .2 0 .3.2a59.8 59.8 0 0 1-8.3 8.4c-2.4 2-5 3.5-7.2 5.7a6.2 6.2 0 0 0 0 3.6 7 7 0 0 0 4.1 4.6l.3 1.3a7.1 7.1 0 0 0 2.9 3 19.7 19.7 0 0 0 9.7 3.6h.2c1.4 0 2.3-.9 2.7-2 2.5-8 5-15.9 8.3-22.8h.5c2.8-.3 5.2-1 7.6-1.7 4.6 2.2 8.2 5.4 11.4 8.9a1.4 1.4 0 0 0 .9.4c2.1.3 3.6-1 4.5-2.3l1.2.8a.1.1 0 0 0 .1 0 7 7 0 0 0 4.1-3.7c1-1.3 1.8-4.1.7-5.8a8 8 0 0 0-2-1c-2.8-1.3-6.1-2-9.4-3A56.6 56.6 0 0 0 123.5 51c1.7-1.8 3.7-3.4 4.8-6v-.6a.7.7 0 0 0-.5-.4c-1.4-.4-3 0-4.1.3-3.3.6-6 2-8.5 3.6l-1.1.6c.6-1.4 1.2-2.7 1.3-4.4 0-.3-.2-.5-.4-.6a.8.8 0 0 0-.7-.1 25.4 25.4 0 0 0-8.8 6.3l.9-2.5c.2-.6.4-1.4.2-2 0-.6-.4-1-.9-1.1a1.2 1.2 0 0 0-.7.2 32 32 0 0 0-6 4.7c.1-.4.3-.8.3-1.4.3-.5.3-1.3 0-1.8-.2-.3-.5-.4-.8-.3-.4 0-.7.1-.9.3-1.7 1-3 2.3-4.3 3.7l.5-2.6v-1l-.4-.5c-.2-.1-.4-.2-.5-.1a3.4 3.4 0 0 1-1.3.6c-1.8 1.2-3.1 2.7-4.5 4.3.1-.5.3-.8.3-1.3.2-.8.3-1.4.1-2.2l2-1.5a12.7 12.7 0 0 0 5.8-4.9c1.5-1.8 2.7-4.2 2.5-7.7-.5-3 1-5.4 3-6.2.2 0 .3-.2.3-.3v-.2l-.2-.1c-.8 0-1.4 0-2 .2-3 .8-4.7 3-6.2 5.3-1.5 2.2-3.4 4-6.8 4-3 0-5.6.7-7.7 2-3 1.8-5 5-5.7 9.4-.8-.2-1.8-.4-2.6-.4h-.2v-.3c.2-1.8.7-3.7 1.2-5.4.8-1.6 1.7-3.2 3.4-3.8l.3-.1v-.3c0-.2-.2-.3-.3-.4a.1.1 0 0 0-.2 0s-.1.2-.3.2a12 12 0 0 0-5.2 1c0-.3 0-.6.2-.8.3-.5.9-1 1.5-1.2v-.2h.1l.3-.1a.4.4 0 0 0 .2-.5c0-.2-.1-.2-.2-.2h-.2a9.5 9.5 0 0 0-5.6 3l-1.4 2Z"/></svg>
