<svg fill="none" viewBox="0 0 404 384" xmlns="http://www.w3.org/2000/svg"><g fill="#8a349d"><path d="m304.944 231.569-11.733-8.204c2.2.002 4.32.256 6.373.685 7.227 4.115 12.587 10.855 16.96 18.492a22.828 22.828 0 0 0 4.04 5.133c-5.493-4.26-10.613-9.942-15.64-16.106zm25.72 21.925c7.067 2.215 15.534 1.807 23.667-2.051 7.12-3.369 13.08-7.554 18.04-12.434-4.48 5.104-10 9.473-16.987 12.754-5.306 2.49-10.186 3.596-14.72 3.596-3.52-.001-6.84-.666-10-1.865z"/><path d="m231.385 162.64c-9.533-3.2-15.107-21.221-11.107-32.132 3.547-9.711 17.8-18.975 30.88-14.589 7.707 2.598 12.747 13.65 10.267 23.202-1.413 5.368-7.8 10.136-14.667 8.236-4.266-1.172-8.813-4.738-8.52-10.75.12-2.491.6-5.291 2.987-6.704.68-.411 2.2.746 2.373 2.677.254 2.771.974 6.352 3.174 8.503 2.093 2.03 5.68 1.143 7.426-1.027 1.88-2.329 2.44-7.255.667-11.768-2.44-6.207-9.293-9.345-17.427-6.604-3.146 1.064-5.773 2.771-7.746 5.178-6.947 4.768-5.294 21.021 1.106 27.351 6.054 5.966 18.654 7.812 29.147 4.455-9.093 4.003-18.6 4.477-29.56.376 2.027 2.303 4.147 4.236 6.333 5.828a28.715 28.715 0 0 1 -5.333-2.232zm74.947 166.792c-.4.416-.814.824-1.24 1.224 5.8-9.581 9.813-20.403 12.76-31.851 7.746-21.662-.907-55.65-18.067-67.228-6.293-4.259-18.653-9.723-26.96-2.137-4.76 4.323-7.92 10.91-5.053 19.635 2.906 8.857 9.386 14.158 17.68 13.794 3.453-2.562 5.546-5.351 6.986-8.424 1.76-3.737-.786-8.583-3.653-10.326-3.893-2.359-9.24.636-14.48.259-.96-.069-1.693-1.637-.973-2.477 2.533-3.056 8.48-4.857 13.573-4.496 6.613.475 12.64 6.637 11.693 14.618-.946 8.044-5.76 16.17-17.08 16.472-11.746-1.694-20.893-11.2-20.946-26.719 1.733-10.531 7.946-18.386 19.773-21.776 7.693-.502 14.027 1.107 19.347 4.137a31.272 31.272 0 0 0 -6.374-.685l11.734 8.204c5.026 6.164 10.146 11.847 15.64 16.107 2.773 2.63 6.213 4.612 10.08 5.819 7.226 2.744 15.293 2.692 24.72-1.731 6.986-3.281 12.506-7.651 16.986-12.755 11.587-11.383 17.787-26.549 20.867-44.04 4.907-28-7.12-64.627-25.347-78.012-8.8-10.597-26.173-18.106-43.066-14.221.493-.228.986-.448 1.493-.652l6.787-1.898c-2.48.414-4.734 1.06-6.787 1.898l-22.547 6.305c-9.106 6.747-16.866 30.297-29.36 40.765a78.593 78.593 0 0 1 -6.346 4.821c8.306-9.728 15.573-19.88 22.786-30.364 5.12-7.462 10.56-15.016 11.347-25.42 4.933-17.403 3.933-45.993-8.453-61.56-15.614-19.605-40.08-30.026-72.72-23.437-2.934.602-5.627 1.662-8.147 2.771-17.24 7.57-24.733 21.981-30.827 37.216-1.373 3.422-2.626 7.503-3.306 11.916-.494-2.725-.694-5.492-.494-8.317l-3.52 26.984c16.814 12.464 15.547 29.234 16.614 47.732a33.506 33.506 0 0 0 2.453-4.127 49.373 49.373 0 0 1 -1.68 8.551 35.993 35.993 0 0 0 -.067-3.961c-7.04 19.966-41.265 30.785-46.65 3.417l1.172-7.031c-2.284 4.661-3.495 8.844-3.836 12.536a36.504 36.504 0 0 1 -.44-1.083c-.49-10.821 5.005-19.339 17.528-21.987 7.213 2.204 13.813 7.335 14.906 17.834-.92 2.708-3.626 5.403-6.906 5.558-.654.033-1.614.157-1.414-1.027.294-1.664 2.134-3.359 1.654-5.386-1.387-5.97-5.92-9.85-11.067-11.04-3.253 2.27-5.657 4.42-7.116 7.176-2.124 4.007-.919 10.531 2.663 13.255 5.266 7.52 22.306 7.078 28.973-.745 6.947-8.14 9.333-23.2 3.853-36.804-3.493-8.743-8.973-15.517-14.546-21.824-10.454-11.83-27.17-21.016-49.146-12.29-12.322 8.472-17.153 22.204-19.229 37.866-.869 6.544 2.057 14.161 2.865 21.096-2.294.523-4.226 2.028-5.573 1.206-5.89-3.55-12.147-6.289-18.927-8.125-14.838-8.362-39.78.172-45.021 14.267-4.981 6.76-7.177 17.256-6.85 28.278a99.113 99.113 0 0 1 -2.351-6.569c1.39-13.356 6.586-25.552 14.141-31.641.17-.13.328-.272.472-.428l.004.002c5.716-6.238 15.377-9.183 25.292-9.329 9.768-.186 19.632 2.439 25.19 6.084.05.039.1.076.151.108l-.002.001c.013.01.03.022.046.028.083.052.17.106.258.153.89.552 1.854 1.372 3.833 1.39a3.402 3.402 0 0 0 .948-.046c.01 0 .017 0 .027-.003v-.003a3.519 3.519 0 0 0 2.853-3.45c0-.287-.033-.568-.104-.834-1.763-8.576-.37-15.264 1.652-21.835.071-.173.131-.354.172-.541 4.479-14.141 9.911-26.033 24.331-30.725.109-.03.21-.063.312-.103 20.029-6.172 32.896.376 43.469 9.964a3.474 3.474 0 0 0 2.387.935 3.507 3.507 0 0 0 3.506-3.454h.014c.533-27.47 11.266-47.948 30.52-62.238 5.213-2.282 10.24-4.567 15.426-5.59 36.347-7.058 60.094 5.371 76.574 28.102.04.037.066.076.08.112 11.386 15.65 12.48 44.732 7.573 61.997-.107.259-.16.53-.2.813-.293 1.662.04 2.77.093 3.241 0 .025.014.051.014.077v.06a3.537 3.537 0 0 0 3.506 3.138c.72 0 1.387-.221 1.947-.594 20.147-12.596 45.24-6.07 56.08 6.313l.013-.002c.094.114.214.226.334.328l-.014.005c13.294 11.433 23.694 26.273 27.494 50.582 4.106 26.622-.44 47.669-10.387 64.49-8.96 15.252-30.227 32.272-54.867 28.505-.72-.048-1.933-.805-3.973-1.622a3.487 3.487 0 0 0 -1.547-.357c-1.946 0-3.506 1.583-3.506 3.533 0 .257.026.511.08.757 6.72 30.667-2.387 52.757-14.094 72.249-.093.131-.16.263-.24.404-2.893 4.724-5.933 9.197-9.48 13.247 3.32-4.43 6.374-9.455 9.254-15.015zm-151.014 46.227a3.349 3.349 0 0 0 -.546-.043c-.067 0-.134 0-.187.003-21.359-.783-34.548-13.492-46.416-29.929a3.928 3.928 0 0 0 -.265-.368c-4.495-6.307-7.368-16.589-11.434-25.591a3.499 3.499 0 0 0 -3.254-2.19c-.536 0-1.042.118-1.498.331-27.265 12.06-55.813 5.755-69.089-9.533-11.028-12.292-19.337-39.428-13.955-56.959 0-.002.004-.005.004-.008l.015-.044c1.25-4.215 3.372-7.92 5.637-11.849 5.599-9.754 14.795-17.487 26.323-23.844.13-.063.26-.132.385-.206 1.366-.789 2.287-2.385 2.271-3.98a4.928 4.928 0 0 0 -.03-.615c.434-.066.878-.162 1.333-.287l7.046 1.172c6.302-1.696 15.377-2.788 19.81-5.639-.124-.044-.246-.09-.37-.135 3.06.191 6.024.567 8.703.959 17.623 2.629 30.073 21.885 27.491 44.471-.858 7.549-4.574 14.546-10.978 18.893 5.743-7.196 9.087-16.592 8.128-25.356-.52 11.465-8.504 25.848-21.08 27.828-12.589 1.993-29.06-11.2-27.016-24.66v-5.713c1.266-1.886 2.974-3.421 4.94-4.584 2.615-.661 5.544-1.218 7.998-.474 2.898.873 7.396 3.88 6.746 7.716-.205 1.186-1.71 2.388-2.645 1.282-1.06-1.282-2.437-4.024-4.99-4.547-4.29-.855-8.39 1.678-9.453 4.896-2.153 6.539 2.375 14.093 5.844 17.971 6.507 7.318 23.963 6.48 31.182-1.694 1.95-2.2 3.693-4.766 5.514-7.821 1.044-4.864 1.392-10.893-.174-17.753-4.01-17.659-15.887-25.151-32.355-24.914-23.204.334-39.31 11.894-49.505 24.247-18.12 18.34-9.522 63.664 12.825 75.641 13.779 9.482 37.47 10.927 58.913 2.389 3.754-1.491 6.62-2.311 9.644 1.391 2.17 9.868 5.53 19.481 10.311 27.273 13.08 21.226 33.591 34.858 65.137 27.858 22.827-5.052 31.614-21.048 37.427-38.437 5.827-12.62 6.787-37.786-4.253-50.378-8.787-10.024-19.174-18.893-37.934-14.365-8.253 4.515-12.453 12.972-13.653 22.884.6 13.955 7.96 21.857 18.56 21.809 4.787-.033 9.067-2.104 12.347-4.357 4.88-3.341 7.906-9.247 6.013-16.785-1.453-5.78-6.227-8.519-11.667-8.142-2.786.195-4.373.888-6.706 2.536-1.4.967 1.253 2.298.373 3.658-.6.949-1.707 1.634-2.587 1.426-2.173-.524-3.093-3.422-2.173-5.303 2.16-4.467 8.907-7.051 15.293-6.939 9.414.159 14.854 11.529 13.614 21.664-1.014 3.576-3.414 7.027-6.667 9.937 2-4.977 3.027-10.555 2.853-16.271-4.013 26.956-42.706 29.394-43.413-.348l1.173-7.033c-.546-5.068.134-10.1 3.094-14.188-.56.176-1.107.367-1.654.578 6.534-9.523 20.8-15.591 34.44-12.378 13.454 3.168 21.894 13.112 29.387 24.311 3.093 6.427 4.533 13.257 4.88 20.018a18.914 18.914 0 0 0 -3.16-3.019 29.454 29.454 0 0 0 -.12-2.43v2.344c.04.031.08.058.12.086.013 13.089-9.04 26.385-7.133 38.521a3.468 3.468 0 0 0 -1.48 1.953l-.014-.003c-5.333 17.899-24.533 33.618-49.68 33.619-2.68 0-5.44-.181-8.24-.553z"/><path d="m213.238 342.593.014.002a3.468 3.468 0 0 1 1.48-1.953c.066.432.146.859.239 1.287 2.774 12.338 15.987 20.034 27.627 22.582 24.614 5.36 41.493-2.765 54.48-20.065 3.547-4.049 6.587-8.523 9.48-13.247.08-.141.147-.273.24-.404 11.707-19.492 20.814-41.582 14.094-72.249a3.525 3.525 0 0 1 -.081-.757c0-1.95 1.561-3.532 3.507-3.532a3.5 3.5 0 0 1 1.547.356c2.04.817 3.253 1.574 3.973 1.622 24.64 3.767 45.907-13.253 54.867-28.505 9.946-16.821 14.493-37.868 10.387-64.489-3.8-24.31-14.2-39.15-27.494-50.583l.013-.005a2.653 2.653 0 0 1 -.333-.328l-.013.002c-10.84-12.382-35.933-18.909-56.08-6.313a3.5 3.5 0 0 1 -1.947.595 3.537 3.537 0 0 1 -3.506-3.139v-.06c0-.025-.014-.052-.014-.077-.053-.471-.386-1.579-.093-3.24.04-.283.093-.555.2-.814 4.907-17.265 3.813-46.348-7.573-61.997a.324.324 0 0 0 -.08-.112c-16.481-22.73-40.227-35.16-76.574-28.103-5.186 1.024-10.213 3.31-15.427 5.591-19.253 14.29-29.986 34.768-30.519 62.239h-.014a3.508 3.508 0 0 1 -3.506 3.453c-.92 0-1.774-.353-2.387-.935-10.574-9.588-23.44-16.136-43.469-9.964-.102.04-.203.074-.312.103-14.42 4.692-19.853 16.584-24.331 30.725a3.526 3.526 0 0 1 -.172.542c-2.022 6.57-3.415 13.258-1.652 21.834.07.266.104.547.104.834a3.519 3.519 0 0 1 -2.853 3.45v.003c-.01.003-.017.003-.027.003a3.401 3.401 0 0 1 -.948.046c-1.979-.018-2.943-.838-3.833-1.39a4.226 4.226 0 0 1 -.258-.152c-.016-.007-.033-.019-.046-.028l.002-.002a1.578 1.578 0 0 1 -.15-.108c-5.56-3.645-15.423-6.27-25.191-6.084-9.915.146-19.576 3.091-25.292 9.33l-.004-.003a3.665 3.665 0 0 1 -.472.428c-7.555 6.089-12.75 18.285-14.142 31.641a125.621 125.621 0 0 1 -2.06-7.218c-2.814 10.92.426 60.19 18.64 57.428.022.202.032.405.03.616.016 1.594-.905 3.19-2.27 3.98a5.612 5.612 0 0 1 -.386.205c-11.528 6.357-20.724 14.091-26.323 23.844-2.265 3.929-4.386 7.635-5.637 11.849l-.015.044c0 .003-.004.006-.004.008-5.382 17.531 2.927 44.667 13.955 56.959 13.276 15.288 41.824 21.593 69.09 9.533a3.52 3.52 0 0 1 1.497-.33c1.478 0 2.734.901 3.254 2.189 4.066 9.003 6.939 19.284 11.434 25.591.093.116.182.236.265.368 11.868 16.437 25.057 29.146 46.416 29.929.053-.003.12-.003.186-.003.187 0 .361.014.547.043 29.134 3.881 52.027-13.256 57.92-33.065zm-58.733 40.062c-24.664-.741-40.033-16.026-52.185-33.046-4.962-7.022-7.714-16.178-10.948-23.983-28.785 11.265-58.591 4.795-74.031-12.629-12.625-14.636-21.431-42.542-15.395-63.667a.16.16 0 0 1 .012-.037c0-.006.002-.014.004-.023 1.554-5.181 4.028-9.409 6.254-13.308 6.053-10.489 15.424-18.565 26.56-25.071-11.147-11.057-15.743-27.929-15.487-44.184.358-17.106 5.968-33.838 16.99-43.081 7.711-8.151 19.177-11.237 30.218-11.429 9.359-.12 18.525 1.786 25.536 5.213-.404-7.279 1.087-13.519 2.794-18.96 4.48-14.399 10.989-29.784 28.933-35.576.146-.056.294-.107.448-.144 18.982-6.104 33.803-1.23 44.763 6.87 2.16-26.038 13.934-46.731 33.387-60.88l.013.01c.2-.155.427-.285.681-.388l-.014-.004c5.227-2.248 10.787-4.893 17.187-6.176 38.453-7.81 66.173 6.245 83.627 30.839.066.093.133.19.2.293 12.12 17.405 13.599 44.336 9.586 63.488 22.013-9.859 46.427-2.87 58.747 10.703 14.2 12.162 25.72 28.928 29.68 54.678 4.333 27.935-.48 50.895-11.294 69.154a.782.782 0 0 0 -.039.06c-10.147 16.984-33.2 35.866-61.774 31.845 4.827 29.808-4.826 52.605-16.226 71.373-9.067 15.104-21.387 29.732-45.614 34.82a3.29 3.29 0 0 1 -.826.102l-.014-.002c-20.693 1.346-36.746-5.961-48.52-18.985-8.373 18.385-28.786 32.719-54.226 32.717-2.947 0-5.961-.192-9.027-.592z"/></g><path d="m320.69 247.763c3.213 2.484 6.546 4.481 10.08 5.819-3.867-1.207-7.307-3.188-10.08-5.819zm-209.551 95.623c-4.781-7.792-8.141-17.404-10.31-27.272-3.024-3.703-5.891-2.883-9.644-1.392-21.443 8.538-45.135 7.093-58.914-2.388-22.347-11.978-30.945-57.302-12.825-75.642 10.194-12.353 26.301-23.913 49.505-24.246 16.468-.238 28.346 7.254 32.355 24.913 1.567 6.86 1.218 12.889.174 17.753-1.82 3.055-3.564 5.622-5.514 7.822-7.219 8.173-24.675 9.012-31.181 1.693-3.47-3.877-7.998-11.432-5.844-17.971 1.062-3.218 5.162-5.75 9.453-4.896 2.552.523 3.93 3.266 4.99 4.547.934 1.107 2.44-.096 2.644-1.281.65-3.836-3.848-6.844-6.746-7.716-2.454-.744-5.383-.188-7.997.473-1.967 1.163-3.675 2.699-4.94 4.584v-.148c-10.96 15.661-6.575 37.979 15.25 40.135 9.455.936 18.493-4.287 24.718-12.086 6.403-4.346 10.12-11.344 10.977-18.893 2.583-22.585-9.868-41.841-27.49-44.471-2.68-.392-5.644-.768-8.703-.958-21.743-8.008-34.287-19.342-42.047-38.752-.328-11.023 1.868-21.519 6.85-28.279 5.24-14.095 30.182-22.629 45.02-14.267 6.78 1.836 13.037 4.575 18.927 8.126 1.347.821 3.279-.684 5.573-1.207-.808-6.935-3.734-14.552-2.865-21.096 2.076-15.661 6.907-29.393 19.23-37.867 21.975-8.725 38.691.46 49.145 12.291 5.573 6.307 11.053 13.081 14.546 21.824 5.48 13.604 3.094 28.664-3.853 36.804-6.667 7.823-23.706 8.265-28.973.745-3.581-2.724-4.787-9.248-2.663-13.254 1.459-2.756 3.863-4.907 7.116-7.176 5.147 1.189 9.68 5.069 11.067 11.04.48 2.026-1.36 3.721-1.653 5.385-.2 1.184.759 1.06 1.413 1.027 3.28-.155 5.986-2.85 6.906-5.558-1.093-10.498-7.693-15.63-14.906-17.834-12.523 2.648-18.018 11.166-17.528 21.988.142.366.289.726.44 1.082-2.711 28.995 47.875 27.908 49.381-4.961a49.373 49.373 0 0 0 1.68-8.551c10.933-21.769-11.186-40.561-15.053-62.272.68-4.413 1.933-8.494 3.306-11.916 6.094-15.234 13.587-29.645 30.827-37.216 2.52-1.109 5.213-2.169 8.147-2.77 32.64-6.59 57.107 3.832 72.72 23.437 12.387 15.567 13.386 44.156 8.453 61.56-.787 10.403-6.226 17.957-11.347 25.419-7.213 10.484-14.48 20.636-22.786 30.364-2.734 1.844-5.467 3.39-8.227 4.606-10.493 3.358-23.093 1.511-29.147-4.454-6.4-6.331-8.053-22.584-1.106-27.352 1.973-2.407 4.6-4.114 7.746-5.178 8.134-2.741 14.987.398 17.427 6.604 1.773 4.514 1.213 9.439-.667 11.768-1.746 2.17-5.333 3.058-7.426 1.027-2.2-2.151-2.92-5.732-3.174-8.503-.173-1.93-1.693-3.088-2.373-2.677-2.386 1.413-2.867 4.213-2.987 6.704-.293 6.012 4.254 9.579 8.521 10.751 6.866 1.9 13.253-2.868 14.666-8.236 2.48-9.552-2.56-20.604-10.267-23.203-13.08-4.385-27.333 4.879-30.88 14.589-4 10.911 1.574 28.932 11.107 32.132a28.724 28.724 0 0 0 5.334 2.232c18.4 13.416 41.213 2.578 55.093-14.426 12.493-15.308 15.266-39.167 33.12-47.623 16.893-3.885 34.266 3.624 43.066 14.221 18.227 13.386 30.254 50.012 25.347 78.012-3.08 17.491-9.28 32.658-20.867 44.04 8.92-10.15 13.814-23.208 18.307-36.39-9.906 16.757-31.773 30.614-50.613 33.606-15.454 2.464-26.28-9.188-40.48-12.174-5.32-3.031-11.654-4.64-19.347-4.138-11.827 3.39-18.04 11.246-19.773 21.776.053 15.519 9.2 25.026 20.947 26.719 11.32-.301 16.133-8.428 17.079-16.472.947-7.981-5.08-14.143-11.693-14.617-5.093-.362-11.04 1.44-13.573 4.496-.72.84.013 2.408.973 2.476 5.24.377 10.587-2.618 14.48-.259 2.867 1.743 5.413 6.589 3.653 10.327-1.44 3.072-3.533 5.861-6.986 8.424-8.293.364-14.774-4.938-17.68-13.795-2.867-8.725.293-15.312 5.053-19.635 8.307-7.586 20.667-2.122 26.96 2.138 17.16 11.577 25.814 45.565 18.067 67.228-2.947 11.448-6.96 22.269-12.76 31.85-13.507 12.911-35.32 19.17-54.014 13.902-19.613-5.52-16.293-27.742-26.053-39.416-.347-6.762-1.787-13.592-4.88-20.019-7.493-11.199-15.933-21.143-29.386-24.311-13.64-3.213-27.907 2.855-34.44 12.378-21.819 8.382-23.814 40.524-2.614 52.352 18.493 10.277 34.307.538 40.56-15.09 3.253-2.91 5.653-6.361 6.667-9.937 1.24-10.135-4.2-21.505-13.613-21.664-6.387-.112-13.134 2.472-15.294 6.939-.92 1.881 0 4.78 2.173 5.304.88.208 1.987-.478 2.587-1.427.88-1.36-1.773-2.691-.373-3.657 2.333-1.648 3.92-2.342 6.707-2.536 5.44-.378 10.213 2.361 11.666 8.141 1.894 7.539-1.133 13.444-6.013 16.785-3.28 2.254-7.56 4.324-12.347 4.358-10.6.048-17.96-7.855-18.56-21.81 1.2-9.912 5.4-18.369 13.654-22.884 18.76-4.528 29.146 4.342 37.933 14.366 11.04 12.592 10.08 37.757 4.253 50.377-5.813 17.389-14.6 33.385-37.427 38.437-5.666 1.259-10.986 1.851-15.973 1.851-22.712 0-38.433-12.304-49.164-29.709z" fill="#fff"/><path d="m44.608 210.546c-.455.125-.899.221-1.333.287-.172-1.388-.946-2.591-1.9-3.407-10.375-8.869-15.363-24.833-15.045-40.608a69.17 69.17 0 0 1 .365-6.195 99.201 99.201 0 0 0 2.352 6.57c.486 16.428 6.573 34.025 17.396 42.198 4.435-1.728 11.133-3.044 17.024-3.454 2.53-.186 5.11-.152 7.627.008.124.044.245.09.37.134-4.433 2.851-13.509 3.943-19.81 5.639l-7.047-1.172z" fill="#8a349d"/><path d="m24.637 153.405c.639 2.51 1.326 4.915 2.06 7.218a69.11 69.11 0 0 0 -.365 6.195c-.319 15.774 4.67 31.738 15.044 40.608.955.816 1.728 2.019 1.9 3.407-.495.074-.983.111-1.453.115-16.932.002-19.924-46.918-17.186-57.543z" fill="#8a349d"/><path d="m29.05 167.193c7.76 19.411 20.305 30.744 42.047 38.752-2.516-.16-5.096-.193-7.626-.008-5.891.411-12.59 1.727-17.024 3.455-10.823-8.173-16.91-25.771-17.396-42.199z" fill="#ddc7e0"/><path d="m174.836 83.851 3.52-26.984c-.2 2.826 0 5.592.493 8.318-1.173 7.518-.666 16.002 3.76 23.845 9.04 8.165 12.827 24.351 11.294 38.427a33.582 33.582 0 0 1 -2.454 4.126c-1.066-18.497.2-35.268-16.613-47.732z" fill="#8a349d"/><path d="m182.611 89.03c-4.427-7.843-4.933-16.327-3.76-23.846 3.867 21.711 25.987 40.503 15.053 62.272 1.534-14.076-2.253-30.261-11.293-38.426z" fill="#ddc7e0"/><path d="m236.716 164.872c-2.187-1.592-4.307-3.525-6.333-5.828 10.96 4.102 20.466 3.627 29.56-.376 2.573-.822 5.013-1.958 7.2-3.424.346-.393.68-.786 1.026-1.182a78.642 78.642 0 0 0 6.347-4.82c12.493-10.468 20.253-34.019 29.36-40.766l22.547-6.305c-.507.204-1 .424-1.494.652-5.013 1.153-9.986 3.315-14.666 6.699-11.267 9.946-17.774 23.296-26.134 35.288-4.826 12.028-21.6 21.505-37.346 21.504-3.44 0-6.854-.455-10.067-1.442z" fill="#8a349d"/><path d="m268.168 154.06c-.347.396-.68.79-1.027 1.183-2.186 1.465-4.626 2.601-7.2 3.424 2.76-1.216 5.494-2.763 8.227-4.607zm-31.453 10.811c17.88 5.476 41.52-5.393 47.413-20.063 8.36-11.992 14.867-25.341 26.133-35.288 4.68-3.384 9.654-5.545 14.667-6.698-17.853 8.456-20.627 32.314-33.12 47.622-9.533 11.676-23.28 20.451-36.92 20.45-6.213 0-12.413-1.82-18.173-6.023z" fill="#ddc7e0"/><path d="m219.422 341.47-.013.005a3.507 3.507 0 0 0 -2.8-1.384c-.694 0-1.347.202-1.88.551-1.907-12.136 7.146-25.432 7.133-38.521a18.919 18.919 0 0 1 3.16 3.02c.6 11.698-2.093 23.184-5.227 31.974 10.774 18.274 33 30.342 59.04 19.62 11.507-6.686 19.947-15.645 26.254-26.08.426-.4.84-.808 1.24-1.224-2.88 5.56-5.934 10.586-9.254 15.015-7.293 8.319-16.693 14.844-31.293 18.053-1.373.075-2.72.114-4.027.114-18.866.001-31.946-7.63-42.333-21.143z" fill="#8a349d"/><path d="m242.597 364.511c-11.64-2.548-24.853-10.244-27.627-22.583a21.702 21.702 0 0 1 -.24-1.286 3.431 3.431 0 0 1 1.88-.551c1.147 0 2.16.543 2.8 1.384l.014-.005c11.106 14.456 25.307 22.18 46.36 21.029 14.6-3.209 24-9.735 31.293-18.053-10.32 13.745-23.093 21.7-40.253 21.7-4.44 0-9.16-.534-14.227-1.635z" fill="#8a349d"/><path d="m219.797 337.116c3.133-8.791 5.827-20.276 5.227-31.975 9.76 11.675 6.439 33.896 26.053 39.416 18.693 5.268 40.507-.99 54.013-13.901-6.306 10.435-14.746 19.393-26.253 26.08-6.76 2.787-13.267 4.035-19.387 4.035-17.426 0-31.68-10.128-39.653-23.655z" fill="#ddc7e0"/><path d="m221.742 302.035v-2.344c.08.809.107 1.619.12 2.429-.04-.028-.08-.054-.12-.085zm-142.752-27.238c-12.019-.427-21.253-6.779-24.467-20.539-1.129-4.808-.249-8.812 1.822-11.891v5.714c-2.044 13.46 14.426 26.653 27.016 24.66 12.576-1.98 20.56-16.363 21.08-27.828.958 8.764-2.386 18.16-8.128 25.356-4.186 2.841-9.516 4.554-15.951 4.554-.452 0-.91-.01-1.372-.026z" fill="#8a349d"/><path d="m71.595 282.354c-21.825-2.156-26.209-24.474-15.25-40.135v.148c-2.071 3.079-2.951 7.083-1.822 11.891 3.214 13.76 12.448 20.112 24.467 20.538 7.052.26 12.845-1.486 17.323-4.528-5.736 7.19-13.871 12.19-22.516 12.192-.731 0-1.464-.034-2.202-.106z" fill="#ddc7e0"/><path d="m167.369 317.922c-12.506-3.008-20.582-24.436-14.306-37.325.56-2.618 1.68-5.112 3.253-7.407a27.38 27.38 0 0 1 1.653-.577c-2.96 4.088-3.64 9.12-3.093 14.188l-1.173 7.033c.706 29.741 39.4 27.304 43.413.348.173 5.716-.853 11.293-2.853 16.271-5.374 4.818-13.107 8.16-20.907 8.16-2 0-4.013-.22-5.987-.691z" fill="#8a349d"/><path d="m153.704 325.542c-21.2-11.828-19.206-43.969 2.613-52.352-1.573 2.295-2.693 4.789-3.253 7.407-6.276 12.889 1.8 34.317 14.306 37.325 9.667 2.309 20.134-1.417 26.894-7.469-4.467 11.164-13.814 19.324-25.534 19.324-4.68.002-9.746-1.303-15.026-4.235z" fill="#ddc7e0"/><path d="m142.844 140.967c.341-3.692 1.552-7.875 3.836-12.536l-1.172 7.031c5.385 27.368 39.61 16.549 46.65-3.418.094 1.368.12 2.687.067 3.962-1.453 4.849-3.667 9.084-6.667 12.141-3.36 3.421-9.293 5.432-15.213 6.511-2.227.402-4.333.601-6.333.601-9.96 0-17.212-4.937-21.168-14.292zm190.259-40.779-6.787 1.897a31.717 31.717 0 0 1 6.787-1.897z" fill="#8a349d"/></svg>